<?xml version="1.0" encoding="UTF-8" standalone="no"?>
<!-- Generator: Adobe Illustrator 16.0.0, SVG Export Plug-In . SVG Version: 6.00 Build 0)  -->

<svg
   version="1.1"
   id="Ebene_1"
   x="0px"
   y="0px"
   width="1684.853"
   height="235.9175"
   viewBox="0 0 1684.853 235.91749"
   enable-background="new 0 0 200 60"
   xml:space="preserve"
   xmlns="http://www.w3.org/2000/svg"
   xmlns:svg="http://www.w3.org/2000/svg"><defs
   id="defs73" />
<g
   id="g1"><path
     id="path1"
     style="fill:#ffffff;stroke-width:2.38561;stroke-miterlimit:0"
     d="M 402.40272,118.1592 A 110.8957,112.25883 0 0 1 291.50702,230.41803 110.8957,112.25883 0 0 1 180.61132,118.1592 110.8957,112.25883 0 0 1 291.50702,5.9003754 110.8957,112.25883 0 0 1 402.40272,118.1592 Z" /><g
     id="g22"
     transform="matrix(8.5,0,0,8.5,-4.9555,-19.2695)">
	<g
   id="g20">
		<path
   fill="#c3002d"
   d="m 116.057,3.581 c -0.024,-0.22 -0.177,-0.257 -0.326,-0.257 -0.102,0 -1.207,0 -1.31,0 -0.075,0 -0.214,0.038 -0.289,0.195 -0.075,0.15 -7.788,18.207 -7.928,18.515 -0.138,0.309 -0.271,0.27 -0.407,-0.063 C 105.723,21.79 97.392,3.708 97.303,3.545 97.227,3.374 97.109,3.324 96.945,3.324 c -0.308,0 -1.144,0 -1.39,0 -0.07,0 -0.246,0.025 -0.283,0.207 -0.044,0.177 -3.856,24.738 -3.871,24.838 -0.012,0.107 -0.037,0.378 0.285,0.378 0.269,0 1.622,0 1.73,0 0.243,0 0.434,-0.12 0.47,-0.352 0.058,-0.296 2.604,-16.658 2.618,-16.785 0.037,-0.282 0.119,-0.308 0.244,-0.038 0.064,0.151 7.757,16.866 7.82,16.993 0.068,0.113 0.172,0.182 0.231,0.182 0.247,0 0.712,0 0.851,0 0.082,0 0.17,-0.069 0.221,-0.195 0.063,-0.138 7.104,-16.596 7.215,-16.879 0.114,-0.283 0.202,-0.283 0.252,0.037 0.025,0.158 2.932,16.571 2.971,16.778 0.037,0.201 0.176,0.259 0.377,0.259 0.178,0 3.071,0 3.358,0 0.24,0 0.416,-0.209 0.366,-0.416 -0.075,-0.578 -4.328,-24.566 -4.353,-24.75 z"
   id="path2" />
		<path
   fill="#c3002d"
   d="m 136.389,18.126 c 0.075,0.184 0.075,0.358 -0.287,0.358 -0.467,0 -6.908,0 -7.158,0 -0.277,0 -0.366,-0.138 -0.254,-0.396 0.088,-0.22 3.5,-8.077 3.61,-8.348 0.115,-0.27 0.315,-0.208 0.392,0 0.15,0.308 3.647,8.224 3.697,8.386 z M 134.604,4.085 c -0.303,-0.649 -0.641,-0.762 -0.906,-0.762 -0.352,0 -0.854,0 -1.03,0 -0.101,0 -0.239,0.049 -0.327,0.257 -0.102,0.208 -10.492,24.316 -10.645,24.675 -0.127,0.281 -0.127,0.49 0.25,0.49 0.429,0 1.787,0 1.875,0 0.164,0 0.314,-0.069 0.439,-0.333 0.151,-0.34 2.971,-6.883 3.07,-7.14 0.15,-0.334 0.429,-0.31 0.63,-0.31 1.157,0 9.136,0 9.31,0 0.178,0 0.379,-0.037 0.528,0.31 0,0 3.048,6.919 3.147,7.121 0.087,0.207 0.302,0.352 0.478,0.352 1.169,0 2.943,0 3.522,0 0.302,0 0.428,-0.259 0.341,-0.478 C 145.197,28.098 134.855,4.653 134.604,4.085 Z"
   id="path4" />
		<path
   fill="#c3002d"
   d="m 76.267,8.558 c 0,-1.855 1.326,-3.29 3.101,-3.675 1.744,-0.388 3.908,-0.011 5.04,1.454 0.157,0.196 0.296,0.441 0.44,0.687 0.089,0.163 0.259,0.319 0.592,0.333 0.076,0 0.428,0.013 0.604,0.024 0.182,0 0.428,-0.112 0.417,-0.37 C 86.434,6.508 86.341,4.754 86.327,4.469 86.315,4.122 86.165,4.073 85.956,3.978 85.05,3.594 84.113,3.3 83.143,3.116 80.892,2.719 78.457,2.834 76.331,3.74 74.362,4.564 72.878,6.2 72.286,8.257 c -0.453,1.597 -0.322,3.416 0.553,4.857 0.811,1.346 2.038,2.184 3.441,2.8 1.428,0.616 2.888,1.145 4.315,1.75 1.762,0.761 3.145,1.61 3.592,3.121 0.542,1.817 0.207,3.773 -1.258,5.102 -2.001,1.805 -7.385,1.523 -9.191,-1.144 -0.333,-0.492 -0.383,-0.788 -0.899,-0.776 -0.321,0 -0.786,0 -0.786,0.441 0,0.257 0,2.095 0,2.755 0,0.308 0.025,0.553 0.333,0.68 0.567,0.244 1.202,0.466 1.806,0.66 0.968,0.309 1.943,0.466 2.95,0.566 6.53,0.68 11.262,-2.616 11.262,-8.31 0,-2.027 -0.749,-4.034 -2.435,-5.259 -1.44,-1.039 -3.259,-1.675 -4.932,-2.241 -0.969,-0.319 -2.126,-0.71 -2.996,-1.264 -1.234,-0.789 -1.762,-1.971 -1.774,-3.437"
   id="path6" />
		<path
   fill="#c3002d"
   d="m 198.799,3.753 c 0,-0.234 -0.201,-0.429 -0.43,-0.429 -0.201,0 -1.734,0 -1.734,0 -0.238,0 -0.43,0.195 -0.43,0.429 0,16.079 0,16.079 0,17.118 0,0.453 -0.15,0.584 -0.441,0.269 -0.939,-0.975 -15.978,-16.797 -16.707,-17.571 -0.216,-0.22 -0.377,-0.245 -0.578,-0.245 -0.24,0 -1.297,0 -1.297,0 -0.226,0 -0.428,0.195 -0.428,0.429 v 24.565 c 0,0.233 0.202,0.428 0.428,0.428 0.213,0 1.736,0 1.736,0 0.24,0 0.428,-0.195 0.428,-0.428 0,0 0,-16.797 0,-17.408 0,-0.691 0.377,-0.308 0.579,-0.113 1.107,1.158 15.101,15.886 16.796,17.678 0.24,0.257 0.441,0.271 0.553,0.271 0.14,0 1.097,0 1.097,0 0.228,0 0.43,-0.195 0.43,-0.428 z"
   id="path8" />
		<path
   fill="#c3002d"
   d="m 20.376,28.061 c -0.429,-0.53 -7.77,-9.945 -8.173,-10.476 -0.182,-0.232 -0.112,-0.409 0.347,-0.59 1.056,-0.384 4.78,-2.089 5.001,-6.518 0.182,-3.738 -2.422,-7.154 -6.494,-7.154 0,0 -9.908,0 -10.053,0 -0.245,0 -0.421,0.207 -0.421,0.429 0,0.307 0,24.332 0,24.565 0,0.233 0.195,0.428 0.421,0.428 0.233,0 2.9,0 3.121,0 0.232,0 0.44,-0.146 0.44,-0.428 0,-0.233 0,-10.072 0,-10.305 0,-0.221 0.189,-0.416 0.421,-0.416 0.233,0 1.673,0 1.818,0 0.145,0 0.396,0 0.654,0.333 0.246,0.34 8.235,10.555 8.235,10.555 0.207,0.201 0.365,0.259 0.542,0.259 0.182,0 3.056,0 3.799,0 0.342,0.003 0.556,-0.412 0.342,-0.682 z M 6.637,15.189 c 0,0 -1.428,0 -1.687,0 -0.245,0 -0.396,-0.208 -0.396,-0.422 0,-0.247 0,-8.405 0,-8.801 0,-0.221 0.176,-0.417 0.409,-0.417 0.233,0 2.693,0 2.693,0 2.824,0 5.479,0.813 5.479,4.461 0.025,1.832 -0.931,5.179 -6.498,5.179 z"
   id="path10" />
		<path
   fill="#c3002d"
   d="m 56.808,8.558 c 0,-1.855 1.326,-3.29 3.107,-3.675 1.738,-0.388 3.901,-0.011 5.039,1.454 0.151,0.196 0.296,0.441 0.434,0.687 0.095,0.163 0.259,0.319 0.598,0.333 0.089,0 0.422,0.013 0.604,0.024 0.176,0 0.421,-0.112 0.409,-0.37 C 66.973,6.508 66.886,4.754 66.873,4.469 66.861,4.122 66.705,4.073 66.496,3.978 65.597,3.594 64.659,3.3 63.69,3.116 61.438,2.719 58.997,2.834 56.876,3.74 54.902,4.564 53.423,6.2 52.825,8.257 c -0.447,1.597 -0.321,3.416 0.56,4.857 0.813,1.346 2.032,2.184 3.436,2.8 1.434,0.616 2.888,1.145 4.315,1.75 1.768,0.761 3.145,1.61 3.598,3.121 0.542,1.817 0.209,3.773 -1.264,5.102 -1.995,1.805 -7.379,1.523 -9.185,-1.144 -0.333,-0.492 -0.39,-0.788 -0.9,-0.776 -0.327,0 -0.786,0 -0.786,0.441 0,0.257 0,2.095 0,2.755 0,0.308 0.025,0.553 0.333,0.68 0.567,0.244 1.196,0.466 1.806,0.66 0.962,0.309 1.945,0.466 2.951,0.566 6.53,0.68 11.254,-2.616 11.254,-8.31 0,-2.027 -0.743,-4.034 -2.435,-5.259 -1.44,-1.039 -3.259,-1.675 -4.931,-2.241 -0.969,-0.319 -2.127,-0.71 -2.99,-1.264 -1.238,-0.789 -1.767,-1.971 -1.779,-3.437"
   id="path12" />
		<g
   id="g16">
			<path
   fill="#c3002d"
   d="m 34.908,2.267 c -7.668,0 -13.877,6.21 -13.877,13.877 0,7.663 6.209,13.878 13.877,13.878 7.664,0 13.872,-6.215 13.872,-13.878 0,-7.667 -6.208,-13.877 -13.872,-13.877 z m 0,2.447 c 3.454,0 6.543,1.535 8.631,3.946 h -3.98 L 39.917,7.91 C 40.319,7.035 38.759,6.263 38.306,7.231 L 37.588,8.66 h -11.31 c 2.082,-2.424 5.177,-3.946 8.63,-3.946 z m -11.43,11.417 c 0,-2.187 0.617,-4.251 1.686,-5.994 0,0 10.569,0.465 10.683,0.465 0.106,0 0.257,0.039 0.345,0.233 0.083,0.195 1.045,2.472 1.114,2.605 0.051,0.124 0.051,0.357 -0.365,0.357 -0.447,0 -9.593,0 -10.304,0 -0.71,0 -1.277,0.565 -1.277,1.276 0,0 0,3.63 0,3.863 0,0.308 0.087,0.58 0.258,0.787 0.284,0.333 0.774,0.504 0.863,0.541 0.132,0.05 0.157,-0.037 0.157,-0.114 0,-0.067 0,-4.817 0,-4.925 0,-0.124 0.075,-0.188 0.17,-0.188 0.087,0 1.094,0 1.119,0 0.025,0 0.151,0 0.064,0.138 -0.346,0.529 -0.529,1.033 -0.529,1.934 0,1.396 1.032,2.358 1.365,2.589 0.038,0.027 0.088,0.114 0.024,0.247 -0.062,0.128 -1.006,2.007 -1.044,2.076 -0.05,0.101 -0.087,0.215 0.039,0.347 l 5.014,4.988 C 27.522,26.4 23.478,21.75 23.478,16.131 Z m 12.009,11.414 c 0,0 -4.819,-4.833 -5.152,-5.165 -0.12,-0.114 -0.025,-0.208 0.025,-0.309 0.05,-0.101 1.736,-3.285 1.806,-3.441 0.076,-0.158 0.227,-0.182 0.251,-0.182 0.106,0 1.113,0 1.138,0 0.025,0 0.164,0.013 0.089,0.17 -0.075,0.157 -1.573,3.145 -1.611,3.22 -0.038,0.075 -0.024,0.182 0.038,0.247 0.063,0.062 5.221,5.215 5.221,5.215 -0.584,0.131 -1.188,0.207 -1.805,0.245 z m 3.7,-0.826 -4.562,-4.573 c -0.095,-0.089 -0.056,-0.207 -0.044,-0.27 l 1.643,-3.272 c 0.076,-0.132 0.176,-0.169 0.295,-0.169 0,0 2.794,0 2.869,0 0.082,0 0.132,0.083 0.082,0.183 l -0.774,1.742 c -0.011,0.037 -0.037,0.165 0.064,0.227 l 1.057,0.699 c 0.125,0.088 0.232,0 0.271,-0.075 0.025,-0.07 1.132,-2.605 1.132,-2.605 0.082,-0.132 0.157,-0.169 0.295,-0.169 h 0.969 c 0.039,0 0.151,0.026 0.089,0.169 -0.064,0.146 -0.799,1.832 -0.799,1.832 -0.014,0.038 -0.038,0.163 0.068,0.234 l 1.051,0.69 c 0.133,0.094 0.234,0 0.271,-0.075 0.044,-0.075 1.177,-2.655 1.264,-2.874 0.31,-0.707 0.184,-1.883 -1.22,-1.883 0,0 -1.396,0 -1.56,0 -0.184,0 -0.221,-0.138 -0.221,-0.195 0,-0.062 0,-5.396 0,-5.396 0,-0.215 0.112,-0.334 0.271,-0.347 0.062,-0.012 2.938,-0.453 2.938,-0.453 1.068,1.743 1.686,3.793 1.686,5.982 -0.001,4.818 -2.953,8.913 -7.135,10.598 z"
   id="path14" />
		</g>
		<path
   fill="#c3002d"
   d="m 170.425,3.753 c 0,-0.234 -0.188,-0.429 -0.428,-0.429 -0.213,0 -1.75,0 -1.75,0 -0.226,0 -0.415,0.195 -0.415,0.429 0,16.079 0,16.079 0,17.118 0,0.453 -0.139,0.584 -0.441,0.269 -0.928,-0.975 -15.979,-16.797 -16.705,-17.571 -0.201,-0.22 -0.402,-0.245 -0.519,-0.245 -0.237,0 -1.371,0 -1.371,0 -0.228,0 -0.43,0.195 -0.43,0.429 v 24.565 c 0,0.233 0.202,0.428 0.43,0.428 0.214,0 1.738,0 1.738,0 0.235,0 0.426,-0.195 0.426,-0.428 0,0 0,-16.797 0,-17.408 0,-0.691 0.379,-0.308 0.58,-0.113 1.106,1.158 15.097,15.886 16.796,17.678 0.239,0.257 0.439,0.271 0.555,0.271 0.139,0 1.094,0 1.094,0 0.227,0 0.427,-0.195 0.427,-0.428 z"
   id="path18" />
	</g>
</g></g>

</svg>
